<?xml version="1.0" encoding="UTF-8"?>
<svg version="1.1" xmlns="http://www.w3.org/2000/svg" width="323" height="307">
<path d="M0 0 C11.55 0 23.1 0 35 0 C35 64.35 35 128.7 35 195 C23.45 195 11.9 195 0 195 C0 130.65 0 66.3 0 0 Z " fill="#2563EB" transform="translate(126,57)"/>
<path d="M0 0 C9.24 0 18.48 0 28 0 C28 64.35 28 128.7 28 195 C18.76 195 9.52 195 0 195 C0 130.65 0 66.3 0 0 Z " fill="#2563EB" transform="translate(239,57)"/>
<path d="M0 0 C7.92 0 15.84 0 24 0 C24 64.35 24 128.7 24 195 C16.08 195 8.16 195 0 195 C0 130.65 0 66.3 0 0 Z " fill="#2563EB" transform="translate(55,57)"/>
<path d="M0 0 C4.95 0 9.9 0 15 0 C15 64.35 15 128.7 15 195 C10.05 195 5.1 195 0 195 C0 130.65 0 66.3 0 0 Z " fill="#2563EB" transform="translate(177,57)"/>
<path d="M0 0 C4.62 0 9.24 0 14 0 C14 64.35 14 128.7 14 195 C9.38 195 4.76 195 0 195 C0 130.65 0 66.3 0 0 Z " fill="#2563EB" transform="translate(208,57)"/>
<path d="M0 0 C4.62 0 9.24 0 14 0 C14 64.35 14 128.7 14 195 C9.38 195 4.76 195 0 195 C0 130.65 0 66.3 0 0 Z " fill="#2563EB" transform="translate(95,57)"/>
<path d="M0 0 C7.26 0 14.52 0 22 0 C22 22.77 22 45.54 22 69 C-0.44 69 -22.88 69 -46 69 C-46 61.74 -46 54.48 -46 47 C-30.82 47 -15.64 47 0 47 C0 31.49 0 15.98 0 0 Z " fill="#2563EB" transform="translate(291,229)"/>
<path d="M0 0 C7.26 0 14.52 0 22 0 C22 15.51 22 31.02 22 47 C37.18 47 52.36 47 68 47 C68 54.26 68 61.52 68 69 C45.56 69 23.12 69 0 69 C0 46.23 0 23.46 0 0 Z " fill="#2563EB" transform="translate(9,229)"/>
<path d="M0 0 C22.44 0 44.88 0 68 0 C68 22.77 68 45.54 68 69 C61.07 69 54.14 69 47 69 C46 68 46 68 45.87974548 66.13340759 C45.88196609 65.31844315 45.88418671 64.5034787 45.88647461 63.66381836 C45.88659546 62.73001343 45.88671631 61.7962085 45.88684082 60.83410645 C45.89195679 59.84599976 45.89707275 58.85789307 45.90234375 57.83984375 C45.90335083 56.93657349 45.90435791 56.03330322 45.90539551 55.10266113 C45.91064488 51.71426126 45.92460602 48.32587941 45.9375 44.9375 C45.958125 37.368125 45.97875 29.79875 46 22 C30.82 22 15.64 22 0 22 C0 14.74 0 7.48 0 0 Z " fill="#2563EB" transform="translate(245,11)"/>
<path d="M0 0 C22.44 0 44.88 0 68 0 C68 7.26 68 14.52 68 22 C52.82 22 37.64 22 22 22 C22.03960749 37.09364568 22.03960749 37.09364568 22.09008789 52.18725586 C22.09300692 54.07145125 22.09555551 55.95564727 22.09765625 57.83984375 C22.10277222 58.82795044 22.10788818 59.81605713 22.11315918 60.83410645 C22.11328003 61.76791138 22.11340088 62.70171631 22.11352539 63.66381836 C22.115746 64.47878281 22.11796661 65.29374725 22.12025452 66.13340759 C22 68 22 68 21 69 C14.07 69 7.14 69 0 69 C0 46.23 0 23.46 0 0 Z " fill="#2563EB" transform="translate(9,11)"/>
</svg>
